<?xml version="1.0" encoding="utf-8"?>
<!-- Generator: Adobe Illustrator 23.0.1, SVG Export Plug-In . SVG Version: 6.00 Build 0)  -->
<svg version="1.1" id="Layer_1" xmlns="http://www.w3.org/2000/svg" xmlns:xlink="http://www.w3.org/1999/xlink" x="0px" y="0px"
	 viewBox="0 0 34.69 34.48" style="enable-background:new 0 0 34.69 34.48;" xml:space="preserve">
<style type="text/css">
	.st0{fill:#FFFFFF;}
	.st1{fill:#8E99CD;}
</style>
<g>
	<circle class="st0" cx="6.7" cy="6.45" r="4.96"/>
	<circle class="st0" cx="29.59" cy="12.31" r="4.96"/>
	<circle class="st0" cx="12.62" cy="29.46" r="4.96"/>
	<path class="st0" d="M8.79,25.16c-2.62-2.14-4.29-5.4-4.29-9.05c0-1.36,0.24-2.65,0.67-3.86c-1.49-0.37-2.75-1.3-3.55-2.56
		c-0.87,1.97-1.36,4.13-1.36,6.42c0,5.28,2.58,9.95,6.53,12.85C6.96,27.44,7.7,26.1,8.79,25.16z"/>
	<path class="st0" d="M25.1,8.54c0.97-1.08,2.33-1.8,3.87-1.93c-2.91-3.89-7.53-6.43-12.76-6.43c-2.34,0-4.55,0.52-6.55,1.42
		c1.27,0.79,2.21,2.04,2.59,3.52c1.24-0.45,2.57-0.7,3.96-0.7C19.77,4.42,22.95,6.02,25.1,8.54z"/>
	<path class="st0" d="M29.46,18.29c-0.6,0-1.18-0.09-1.73-0.26c-0.81,4.91-4.68,8.78-9.59,9.6c0.22,0.61,0.34,1.27,0.34,1.95
		c0,0.84-0.18,1.64-0.5,2.36c7.45-0.83,13.35-6.79,14.08-14.27C31.27,18.06,30.39,18.29,29.46,18.29z"/>
</g>
</svg>
