<?xml version="1.0" encoding="utf-8"?>
<!-- Generator: Adobe Illustrator 23.0.1, SVG Export Plug-In . SVG Version: 6.00 Build 0)  -->
<svg version="1.1" id="Layer_1" xmlns="http://www.w3.org/2000/svg" xmlns:xlink="http://www.w3.org/1999/xlink" x="0px" y="0px"
	 viewBox="0 0 29.42 36.71" style="enable-background:new 0 0 29.42 36.71;" xml:space="preserve">
<style type="text/css">
	.st0{fill:#FFFFFF;}
	.st1{fill:#8E99CD;}
</style>
<g>
	<path id="Path_376_1_" class="st0" d="M29.14,3.81c0-0.37-0.3-0.67-0.67-0.67l0,0h-5.6V0.95c0-0.37-0.3-0.67-0.67-0.67H7.41
		c-0.37,0-0.67,0.3-0.67,0.67l0,0v2.19h-5.6c-0.37,0-0.67,0.3-0.67,0.66c0,0,0,0,0,0c0.1,4.29,2.5,8.2,6.27,10.24v1.61
		c0.01,3.69,2.52,6.91,6.1,7.81v3.75H9.96c-0.37,0-0.67,0.3-0.67,0.67v1.92H7.41c-0.37,0-0.67,0.3-0.67,0.67v5.25
		c0,0.37,0.3,0.67,0.67,0.67H22.2c0.37,0,0.67-0.3,0.67-0.67l0,0v-5.25c0-0.37-0.3-0.67-0.67-0.67h-1.88V27.9
		c0-0.37-0.3-0.67-0.67-0.67h-2.89v-3.75c3.58-0.9,6.09-4.12,6.1-7.81v-1.61C26.64,12.01,29.03,8.11,29.14,3.81z M1.83,4.48h4.91v8
		C3.95,10.72,2.14,7.77,1.83,4.48L1.83,4.48z M21.53,35.06H8.08v-3.91h13.45V35.06z M18.98,29.81h-8.35v-1.24h8.35V29.81z
		 M15.42,27.23h-1.24v-3.53c0.21,0.02,0.41,0.03,0.62,0.03s0.42-0.02,0.62-0.03L15.42,27.23z M21.53,15.66
		c0,3.71-3.02,6.72-6.73,6.72c-3.71,0-6.72-3.01-6.72-6.72V1.62h13.45V15.66z M22.87,12.48V4.48h4.91
		C27.47,7.77,25.66,10.72,22.87,12.48L22.87,12.48z"/>
	<path id="Path_377_1_" class="st0" d="M9.96,3.15c-0.37,0-0.67,0.3-0.67,0.67c0,0,0,0,0,0v10.77c0,0.37,0.3,0.67,0.67,0.67
		c0.37,0,0.67-0.3,0.67-0.67c0,0,0,0,0,0V3.81C10.63,3.45,10.33,3.15,9.96,3.15z"/>
</g>
</svg>
