<?xml version="1.0" encoding="utf-8"?>
<!-- Generator: Adobe Illustrator 23.0.1, SVG Export Plug-In . SVG Version: 6.00 Build 0)  -->
<svg version="1.1" id="Layer_1" xmlns="http://www.w3.org/2000/svg" xmlns:xlink="http://www.w3.org/1999/xlink" x="0px" y="0px"
	 viewBox="0 0 40.28 29.19" style="enable-background:new 0 0 40.28 29.19;" xml:space="preserve">
<style type="text/css">
	.st0{fill:#FFFFFF;}
	.st1{fill:#8E99CD;}
</style>
<path id="surface1" class="st1" d="M34.21,3.95c-2.56-1.9-5.57-3.11-8.73-3.5l-0.43,0.85c3.12,0.65,6,2.17,8.29,4.39
	c-3.54-1.81-7.02-3.5-13.11-3.5S10.66,3.89,7.12,5.7c2.3-2.2,5.17-3.72,8.29-4.39l-0.43-0.85c-3.17,0.38-6.18,1.59-8.74,3.5
	c0,0-4.47,6.48-5.24,19.22c4.51,5.2,11.36,5.24,11.36,5.24l1.43-1.91c-2.92-1-5.53-2.75-7.55-5.08c2.83,2.14,7.1,4.37,13.98,4.37
	s11.15-2.23,13.98-4.37c-2.02,2.33-4.63,4.08-7.55,5.08l1.43,1.91c0,0,6.85-0.04,11.36-5.24C38.69,10.44,34.21,3.95,34.21,3.95z
	 M14.55,19.68c-1.81-0.13-3.17-1.69-3.06-3.5c-0.11-1.81,1.25-3.37,3.06-3.5c1.81,0.13,3.17,1.69,3.06,3.5
	C17.72,17.99,16.36,19.55,14.55,19.68z M25.91,19.68c-1.81-0.13-3.17-1.69-3.06-3.5c-0.11-1.81,1.25-3.37,3.06-3.5
	c1.81,0.13,3.17,1.69,3.06,3.5C29.08,17.99,27.72,19.55,25.91,19.68L25.91,19.68z"/>
</svg>
