<?xml version="1.0" encoding="utf-8"?>
<!-- Generator: Adobe Illustrator 23.0.1, SVG Export Plug-In . SVG Version: 6.00 Build 0)  -->
<svg version="1.1" id="Layer_1" xmlns="http://www.w3.org/2000/svg" xmlns:xlink="http://www.w3.org/1999/xlink" x="0px" y="0px"
	 viewBox="0 0 34.57 34.48" style="enable-background:new 0 0 34.57 34.48;" xml:space="preserve">
<style type="text/css">
	.st0{fill:#FFFFFF;}
	.st1{fill:#8E99CD;}
</style>
<g id="Group_717" transform="translate(0 -0.003)">
	<path id="Path_360" class="st0" d="M34.06,3.98l-7.67,7.67l4.62,2c0.19,0.08,0.28,0.3,0.19,0.5c-0.05,0.12-0.16,0.2-0.29,0.22
		L19.4,15.88c-0.21,0.03-0.39-0.12-0.42-0.32c0-0.03,0-0.06,0-0.1l1.5-11.51c0.01-0.08,0.05-0.16,0.11-0.22
		c0.15-0.15,0.38-0.15,0.53,0c0.03,0.03,0.06,0.07,0.08,0.12l2,4.62l7.67-7.67c0.15-0.15,0.38-0.15,0.53,0l2.66,2.66
		C34.21,3.6,34.21,3.83,34.06,3.98C34.07,3.98,34.07,3.98,34.06,3.98z M15.23,18.72l-11.52,1.5c-0.21,0.03-0.35,0.21-0.32,0.42
		c0.02,0.13,0.1,0.25,0.22,0.3l4.62,2.01l-7.67,7.67c-0.15,0.15-0.15,0.38,0,0.53l2.66,2.65c0.15,0.15,0.38,0.15,0.53,0c0,0,0,0,0,0
		l7.67-7.67l2.01,4.62c0.08,0.19,0.3,0.28,0.49,0.19c0.04-0.02,0.08-0.05,0.12-0.08c0.06-0.06,0.1-0.13,0.11-0.22l1.51-11.52
		c0.01-0.12-0.02-0.23-0.11-0.32C15.47,18.74,15.35,18.7,15.23,18.72z M25.91,23.19l4.62-2c0.16-0.07,0.25-0.23,0.22-0.4
		c-0.02-0.17-0.16-0.3-0.32-0.32l-11.52-1.51c-0.21-0.03-0.39,0.12-0.42,0.32c0,0.03,0,0.06,0,0.1L20,30.9
		c0.03,0.21,0.22,0.35,0.42,0.32c0.13-0.02,0.24-0.1,0.29-0.22l2.01-4.62l7.67,7.67c0.15,0.15,0.38,0.15,0.53,0c0,0,0,0,0,0
		l2.66-2.66c0.15-0.15,0.15-0.38,0-0.53c0,0,0,0,0,0L25.91,23.19z M8.24,11.41l-4.62,2c-0.19,0.08-0.28,0.3-0.19,0.49
		c0.02,0.04,0.05,0.08,0.08,0.12c0.06,0.06,0.13,0.1,0.22,0.11l11.52,1.51c0.21,0.03,0.39-0.12,0.42-0.32c0-0.03,0-0.07,0-0.1
		L14.15,3.7c-0.03-0.21-0.21-0.35-0.42-0.32c-0.13,0.02-0.25,0.1-0.3,0.22l-2.01,4.62L3.76,0.55c-0.15-0.15-0.38-0.15-0.53,0
		c0,0,0,0,0,0L0.57,3.21c-0.15,0.15-0.15,0.38,0,0.53c0,0,0,0,0,0L8.24,11.41z"/>
</g>
</svg>
