<?xml version="1.0" encoding="utf-8"?>
<!-- Generator: Adobe Illustrator 23.0.1, SVG Export Plug-In . SVG Version: 6.00 Build 0)  -->
<svg version="1.1" id="Layer_1" xmlns="http://www.w3.org/2000/svg" xmlns:xlink="http://www.w3.org/1999/xlink" x="0px" y="0px"
	 viewBox="0 0 39.68 29.48" style="enable-background:new 0 0 39.68 29.48;" xml:space="preserve">
<style type="text/css">
	.st0{fill:#FFFFFF;}
	.st1{fill:#8E99CD;}
</style>
<g id="Group_718" transform="translate(-0.001 -64.795)">
	<path id="Path_361" class="st0" d="M37.91,75.39c-0.23,0-0.45,0.07-0.64,0.18l-6.25,3.61v-3.53c0-0.72-0.58-1.3-1.3-1.3H9.27
		C8,72.89,5.78,72.72,4.31,73.99c-0.78,0.67-1.22,1.64-1.22,2.67v4.51h-1.3c-0.57,0-1.03,0.46-1.03,1.03c0,0.03,0,0.07,0,0.1
		c0.28,2.79,2.49,5,5.28,5.27v2.57H2.65c-0.72,0-1.3,0.58-1.3,1.3v1.04c0,0.72,0.58,1.3,1.3,1.3H6.5c0.31,0,0.56-0.25,0.56-0.56
		c0-0.31-0.25-0.56-0.56-0.56c0,0,0,0,0,0H2.65c-0.1,0-0.18-0.08-0.19-0.19v-1.04c0-0.1,0.08-0.18,0.19-0.19h7.91
		c0.1,0,0.18,0.08,0.19,0.19v1.04c0,0.1-0.08,0.18-0.19,0.19H9.11c-0.31,0-0.56,0.25-0.56,0.56s0.25,0.56,0.56,0.56c0,0,0,0,0,0
		h1.45c0.69,0,1.26-0.53,1.3-1.22h17.86c0.72,0,1.3-0.58,1.3-1.3v-3.53l6.25,3.61c0.19,0.12,0.41,0.18,0.64,0.18l0,0
		c0.3,0,0.58-0.13,0.76-0.36c0.17-0.22,0.26-0.5,0.25-0.78V76.53c0.06-0.57-0.36-1.08-0.92-1.13
		C37.97,75.39,37.94,75.39,37.91,75.39L37.91,75.39z M4.2,76.65c0-1.33,1.08-2.4,2.4-2.4c1.33,0,2.4,1.07,2.4,2.4v3.15H4.2V76.65z
		 M4.2,80.92H9v0.8c0,1.33-1.07,2.4-2.4,2.4s-2.4-1.07-2.4-2.4l0,0V80.92z M3.4,85.23c-0.84-0.77-1.38-1.81-1.52-2.95h1.24
		c0.31,1.92,2.12,3.22,4.03,2.91c1.5-0.24,2.67-1.42,2.91-2.91h1.24c-0.31,2.6-2.67,4.46-5.27,4.16C5.06,86.32,4.14,85.9,3.4,85.23z
		 M29.9,91.26c0,0.1-0.08,0.18-0.19,0.19H11.86v-0.01c0-0.72-0.58-1.3-1.3-1.3h-3.4v-2.57c2.79-0.27,5-2.48,5.28-5.27
		c0.05-0.57-0.36-1.07-0.93-1.12c-0.03,0-0.07,0-0.1,0h-1.3v-4.52c0-0.4-0.07-0.8-0.2-1.18h19.8c0.1,0,0.18,0.08,0.19,0.19
		L29.9,91.26z M37.8,90.36l-2.65-1.53v-2.36c0-0.31-0.25-0.56-0.56-0.56c-0.31,0-0.56,0.25-0.56,0.56v1.72l-3.01-1.74v-5.97
		l3.01-1.74v5.13c0,0.31,0.25,0.56,0.56,0.56c0.31,0,0.56-0.25,0.56-0.56l0,0v-5.77l2.65-1.53L37.8,90.36z"/>
	<path id="Path_362" class="st0" d="M23.14,82.61l-6.83-3.9c-0.17-0.1-0.36-0.16-0.56-0.16c-0.52,0.01-0.93,0.44-0.92,0.96
		c0,0.02,0,0.04,0,0.06v7.79c-0.04,0.52,0.34,0.97,0.86,1.02c0.02,0,0.04,0,0.06,0c0.2,0,0.39-0.06,0.56-0.16l6.83-3.9
		c0.47-0.22,0.68-0.78,0.46-1.25C23.51,82.86,23.34,82.7,23.14,82.61L23.14,82.61z M15.95,87.14v-7.35l6.43,3.68L15.95,87.14z"/>
	<path id="Path_363" class="st0" d="M7.31,75.67H5.9c-0.31,0-0.56,0.25-0.56,0.56c0,0.31,0.25,0.56,0.56,0.56c0,0,0,0,0,0H7.3
		c0.31,0,0.56-0.25,0.56-0.56C7.86,75.92,7.61,75.67,7.31,75.67L7.31,75.67z"/>
	<path id="Path_364" class="st0" d="M7.31,77.74H5.9c-0.31,0-0.56,0.25-0.56,0.56c0,0.31,0.25,0.56,0.56,0.56c0,0,0,0,0,0H7.3
		c0.31,0,0.56-0.25,0.56-0.56C7.86,77.99,7.61,77.74,7.31,77.74L7.31,77.74z"/>
	<path id="Path_365" class="st0" d="M19.84,71.93c-0.63,0-1.22,0.26-1.65,0.73c-0.21,0.23-0.19,0.58,0.03,0.79
		c0.23,0.21,0.58,0.19,0.79-0.03l0,0c0.42-0.46,1.12-0.49,1.58-0.07c0.02,0.02,0.05,0.05,0.07,0.07c0.21,0.23,0.56,0.24,0.79,0.03
		c0.23-0.21,0.24-0.56,0.03-0.79C21.07,72.19,20.47,71.93,19.84,71.93L19.84,71.93z"/>
	<path id="Path_366" class="st0" d="M22.3,71.91c0.21,0.23,0.56,0.24,0.79,0.03c0.23-0.21,0.24-0.56,0.03-0.79
		c-1.66-1.81-4.47-1.93-6.28-0.27c-0.09,0.09-0.18,0.18-0.27,0.27c-0.21,0.23-0.19,0.58,0.03,0.79c0.23,0.21,0.58,0.19,0.79-0.03
		c1.24-1.36,3.35-1.45,4.7-0.21C22.16,71.77,22.23,71.84,22.3,71.91L22.3,71.91z"/>
	<path id="Path_367" class="st0" d="M20.52,68.66c0.31,0.04,0.59-0.18,0.62-0.49s-0.18-0.59-0.49-0.62
		c-2.13-0.26-4.26,0.52-5.72,2.11c-0.21,0.23-0.19,0.58,0.03,0.79c0.23,0.21,0.58,0.19,0.79-0.03
		C16.97,69.09,18.74,68.44,20.52,68.66L20.52,68.66z"/>
	<path id="Path_368" class="st0" d="M23.93,70.41c0.21,0.23,0.56,0.24,0.79,0.03s0.24-0.56,0.03-0.79
		c-0.41-0.45-0.89-0.84-1.41-1.16c-0.26-0.16-0.61-0.08-0.77,0.18c-0.16,0.26-0.08,0.61,0.18,0.77
		C23.19,69.71,23.58,70.04,23.93,70.41L23.93,70.41z"/>
	<path id="Path_369" class="st0" d="M13.71,69.1c0.16,0,0.31-0.07,0.41-0.18c2.89-3.15,7.8-3.37,10.95-0.47
		c0.16,0.15,0.32,0.31,0.47,0.47c0.21,0.23,0.56,0.24,0.79,0.03c0.23-0.21,0.24-0.56,0.03-0.79c-3.31-3.61-8.92-3.85-12.53-0.54
		c-0.19,0.17-0.37,0.35-0.54,0.54c-0.21,0.23-0.2,0.58,0.03,0.79C13.44,69.04,13.57,69.1,13.71,69.1L13.71,69.1z"/>
</g>
</svg>
