<svg xmlns="http://www.w3.org/2000/svg" width="58.501" height="65.115" viewBox="0 0 58.501 65.115">
  <g id="question-mark" transform="translate(-26.001 0)">
    <path id="Path_457" data-name="Path 457" d="M84.13,59.346l-4.5-4.5,2.7-2.7a1.272,1.272,0,0,0-.5-2.106l-4.577-1.526A29.251,29.251,0,0,0,39.234,4.774,1.272,1.272,0,0,0,40.629,6.9,26.706,26.706,0,0,1,74.616,47.64l-2.694-.9a24.122,24.122,0,1,0-6.28,4.327l.81,2.431a26.4,26.4,0,0,1-11.2,2.457A26.709,26.709,0,0,1,32.9,14.628a1.272,1.272,0,0,0-2.127-1.395A29.251,29.251,0,0,0,55.252,58.5a28.925,28.925,0,0,0,12.009-2.574l2.173,6.519a1.272,1.272,0,0,0,2.106.5l2.7-2.7,4.5,4.5a1.272,1.272,0,0,0,1.8,0l3.6-3.6a1.272,1.272,0,0,0,0-1.8ZM55.252,50.871a21.621,21.621,0,1,1,13.892-5.054l-3.5-1.166a1.272,1.272,0,0,0-1.609,1.609l.791,2.374A21.653,21.653,0,0,1,55.252,50.871ZM79.633,62.044l-4.5-4.5a1.272,1.272,0,0,0-1.8,0L71.2,59.69l-3.94-11.822,11.822,3.94L76.935,53.95a1.272,1.272,0,0,0,0,1.8l4.5,4.5Z" fill="#fff"/>
    <path id="Path_458" data-name="Path 458" d="M225.452,310.4a4.451,4.451,0,1,0,4.451,4.451A4.456,4.456,0,0,0,225.452,310.4Zm0,6.359a1.908,1.908,0,1,1,1.908-1.908A1.91,1.91,0,0,1,225.452,316.758Z" transform="translate(-170.201 -270.924)" fill="#fff"/>
    <path id="Path_459" data-name="Path 459" d="M187.848,82.844a11.071,11.071,0,0,0-18.9,7.828,4.451,4.451,0,0,0,8.9,0,2.168,2.168,0,1,1,4.337,0c0,.935-.67,1.617-1.763,2.651-2.276,2.154-4.856,4.6-4.856,9.907a4.451,4.451,0,1,0,8.9,0c0-1.451.779-2.262,2.049-3.464,2.142-2.027,4.57-4.325,4.57-9.094A11,11,0,0,0,187.848,82.844Zm-3.076,15.074c-1.267,1.2-2.844,2.692-2.844,5.312a1.908,1.908,0,1,1-3.815,0c0-4.216,1.882-6,4.061-8.06,1.2-1.135,2.558-2.421,2.558-4.5a4.712,4.712,0,1,0-9.424,0,1.908,1.908,0,0,1-3.815,0,8.527,8.527,0,0,1,17.055,0C188.547,94.345,186.8,96,184.772,97.918Z" transform="translate(-124.768 -69.478)" fill="#fff"/>
    <path id="Path_460" data-name="Path 460" d="M91.7,66.981a1.272,1.272,0,1,0-.9-2.171h0a1.272,1.272,0,0,0,.9,2.171Z" transform="translate(-56.237 -56.242)" fill="#fff"/>
  </g>
</svg>
